<svg width="128" height="128" viewBox="0 0 128 128" fill="none" xmlns="http://www.w3.org/2000/svg">
<g clip-path="url(#clip0_1_42)">
<rect x="54.1547" y="3.23184" width="74.2151" height="116.27" rx="6" transform="rotate(5 54.1547 3.23184)" fill="#E24D70"/>
<path d="M64.6835 4.55291L63.5189 0.206236L63.5188 0.206248L64.6835 4.55291ZM72.032 8.79556L76.3787 7.63087L72.032 8.79556ZM92.5905 108.703L93.7552 113.05L93.7552 113.05L92.5905 108.703ZM5.55291 26.6086L1.20625 27.7733L1.20625 27.7733L5.55291 26.6086ZM64.6835 4.55291L65.8482 8.89959C66.6484 8.68517 67.4709 9.16011 67.6853 9.96024L72.032 8.79556L76.3787 7.63087C74.8778 2.02945 69.1202 -1.29456 63.5189 0.206236L64.6835 4.55291ZM72.032 8.79556L67.6853 9.96024L92.4865 102.519L96.8331 101.355L101.18 100.19L76.3787 7.63087L72.032 8.79556ZM96.8331 101.355L92.4865 102.519C92.7009 103.319 92.226 104.142 91.4258 104.356L92.5905 108.703L93.7552 113.05C99.3565 111.549 102.681 105.791 101.18 100.19L96.8331 101.355ZM92.5905 108.703L91.4258 104.356L36.5378 119.064L37.7025 123.41L38.8672 127.757L93.7552 113.05L92.5905 108.703ZM37.7025 123.41L36.5378 119.064C35.7376 119.278 34.9151 118.803 34.7007 118.003L30.354 119.168L26.0074 120.332C27.5083 125.934 33.2658 129.258 38.8672 127.757L37.7025 123.41ZM30.354 119.168L34.7007 118.003L9.89958 25.4439L5.55291 26.6086L1.20625 27.7733L26.0074 120.332L30.354 119.168ZM5.55291 26.6086L9.89958 25.4439C9.68517 24.6437 10.16 23.8212 10.9602 23.6068L9.79555 19.2601L8.63087 14.9134C3.02947 16.4143 -0.294638 22.1719 1.20625 27.7733L5.55291 26.6086ZM9.79555 19.2601L10.9602 23.6068L65.8482 8.89958L64.6835 4.55291L63.5188 0.206248L8.63087 14.9134L9.79555 19.2601Z" fill="#E24D70"/>
</g>
<defs>
<clipPath id="clip0_1_42">
<rect width="128" height="128" fill="white"/>
</clipPath>
</defs>
</svg>
